# xmcd
#
# Track frame offsets:
# 150
# 22100
# 39420
# 57226
# 79344
# 93778
# 112574
# 134554
# 155748
# 177533
#
# Disc length: 2661 seconds
#
#
# Revision: 1
# Processed by: cddbd v1.5.1PL0 Copyright (c) Steve Scherf et al.
# Submitted via: FreeRIP 2.91 
#
DISCID=7e0a630a
DTITLE=Tryst - Tryst
DYEAR=1900
DGENRE=
TTITLE0=DieWahreLiebe
TTITLE1=Maelstrom
TTITLE2=SkinOfAStranger
TTITLE3=TheAlchemist
TTITLE4=HardlyFeltTheFloor
TTITLE5=MrHole
TTITLE6=StudsOnHisStilettos
TTITLE7=WeddingSong
TTITLE8=TheShakes
TTITLE9=WrapItSellIt
EXTD=
EXTT0=
EXTT1=
EXTT2=
EXTT3=
EXTT4=
EXTT5=
EXTT6=
EXTT7=
EXTT8=
EXTT9=
PLAYORDER=
